<svg xmlns="http://www.w3.org/2000/svg" viewBox="0 0 1200 450" fill="none" role="presentation" aria-hidden="true" focusable="false">
  <title id="bba-product-planning-title">Decorative abstract planning board</title>
  
  <style>
    .bba-line{stroke:#fff;stroke-opacity:.28;stroke-width:1.4;stroke-linecap:round;stroke-linejoin:round}
    .bba-soft{stroke:#fff;stroke-opacity:.14;stroke-width:1}
    .bba-mid{stroke:#e8e8e8;stroke-opacity:.22;stroke-width:1.1;stroke-linecap:round;stroke-linejoin:round}
    .bba-fill{fill:#fff;fill-opacity:.07;stroke:#fff;stroke-opacity:.22;stroke-width:1.2}
    .bba-dot{fill:#fff;fill-opacity:.32}
    .bba-faint{fill:#fff;fill-opacity:.05;stroke:#fff;stroke-opacity:.12;stroke-width:1}
  </style>

  <g id="bba-planning-grid" class="bba-soft">
    <path d="M70 90H1110M70 170H1110M70 250H1110M70 330H1110M150 40V410M310 40V410M470 40V410M630 40V410M790 40V410M950 40V410"/>
  </g>
  <g id="bba-planning-frame" class="bba-line">
    <path d="M90 70H470V220H90Z"/>
    <path d="M112 98H248M112 121H205"/>
    <path d="M112 153H440V202H112Z"/>
    <path d="M112 153L440 202M440 153L112 202"/>
    <path d="M520 82H770V150H520Z"/>
    <path d="M545 105H690M545 126H735"/>
    <path d="M845 80H1080V205H845Z"/>
    <path d="M872 106H1010M872 132H1048M872 158H985"/>
  </g>
  <g id="bba-planning-flow" class="bba-line">
    <path d="M470 142C510 142 500 116 520 116"/>
    <path d="M770 116C816 116 802 142 845 142"/>
    <path d="M250 220C250 278 380 255 380 310"/>
    <path d="M380 310C470 310 470 266 560 266"/>
    <path d="M560 266C635 266 655 320 735 320"/>
    <path d="M735 320C805 320 815 265 890 265"/>
    <path d="M890 265C955 265 958 315 1040 315"/>
    <path d="M505 116l-10-6v12z" fill="#fff" fill-opacity=".28" stroke="none"/>
    <path d="M830 142l-10-6v12z" fill="#fff" fill-opacity=".28" stroke="none"/>
    <path d="M545 266l-10-6v12z" fill="#fff" fill-opacity=".28" stroke="none"/>
    <path d="M1025 315l-10-6v12z" fill="#fff" fill-opacity=".28" stroke="none"/>
  </g>
  <g id="bba-planning-nodes">
    <circle cx="250" cy="220" r="8" class="bba-fill"/>
    <circle cx="380" cy="310" r="14" class="bba-fill"/>
    <circle cx="560" cy="266" r="9" class="bba-fill"/>
    <circle cx="735" cy="320" r="15" class="bba-fill"/>
    <circle cx="890" cy="265" r="10" class="bba-fill"/>
    <circle cx="1040" cy="315" r="14" class="bba-fill"/>
  </g>
  <g id="bba-planning-cards">
    <rect x="95" y="270" width="86" height="54" rx="3" class="bba-fill"/>
    <path d="M112 288H162M112 304H145" class="bba-mid"/>
    <rect x="610" y="190" width="130" height="64" rx="3" class="bba-fill"/>
    <path d="M630 210H705M630 230H680" class="bba-mid"/>
    <rect x="820" y="340" width="176" height="50" rx="3" class="bba-fill"/>
    <path d="M842 357H930M842 374H970" class="bba-mid"/>
  </g>
  <g id="bba-planning-progress">
    <rect x="520" y="355" width="220" height="10" rx="5" class="bba-faint"/>
    <rect x="520" y="355" width="132" height="10" rx="5" fill="#fff" fill-opacity=".18"/>
    <circle cx="652" cy="360" r="4" class="bba-dot"/>
    <path d="M1070 235v80M1030 275h80" class="bba-soft"/>
    <circle cx="1070" cy="275" r="24" class="bba-soft"/>
  </g>

</svg>
