<svg xmlns="http://www.w3.org/2000/svg" viewBox="0 0 800 320" fill="none" role="presentation" aria-hidden="true" focusable="false">
  <title id="bba-governance-title">Decorative abstract planning board</title>
  
  <style>
    .bba-line{stroke:#fff;stroke-opacity:.28;stroke-width:1.4;stroke-linecap:round;stroke-linejoin:round}
    .bba-soft{stroke:#fff;stroke-opacity:.14;stroke-width:1}
    .bba-mid{stroke:#e8e8e8;stroke-opacity:.22;stroke-width:1.1;stroke-linecap:round;stroke-linejoin:round}
    .bba-fill{fill:#fff;fill-opacity:.07;stroke:#fff;stroke-opacity:.22;stroke-width:1.2}
    .bba-dot{fill:#fff;fill-opacity:.32}
    .bba-faint{fill:#fff;fill-opacity:.05;stroke:#fff;stroke-opacity:.12;stroke-width:1}
  </style>

  <g id="bba-theme-grid" class="bba-soft">
    <path d="M40 72H760M40 150H760M40 228H760M110 30V290M260 30V290M410 30V290M560 30V290M710 30V290"/>
  </g>

  <g id="bba-governance-decisions" class="bba-line">
    <circle cx="128" cy="102" r="24"/>
    <circle cx="128" cy="208" r="24"/>
    <circle cx="310" cy="155" r="42"/>
    <circle cx="540" cy="90" r="23"/>
    <circle cx="540" cy="155" r="23"/>
    <circle cx="540" cy="220" r="23"/>
    <path d="M152 102C220 102 230 135 268 145M152 208C220 208 230 175 268 165"/>
    <path d="M352 155H517M563 90H710M563 155H710M563 220H710"/>
    <rect x="650" y="62" width="90" height="56" rx="4"/>
    <rect x="650" y="127" width="90" height="56" rx="4"/>
    <rect x="650" y="192" width="90" height="56" rx="4"/>
  </g>
  <circle cx="310" cy="155" r="10" class="bba-dot"/>

</svg>
